<mxfile host="65bd71144e">
    <diagram id="AKb4yCFJ7mSlOv2iYVUs" name="Page-1">
        <mxGraphModel dx="931" dy="856" grid="1" gridSize="10" guides="1" tooltips="1" connect="1" arrows="1" fold="1" page="0" pageScale="1" pageWidth="827" pageHeight="1169" math="0" shadow="0">
            <root>
                <mxCell id="0"/>
                <mxCell id="1" parent="0"/>
                <mxCell id="2" value="&lt;span style=&quot;color: rgb(32, 33, 36); font-style: normal; font-variant-ligatures: normal; font-variant-caps: normal; letter-spacing: normal; orphans: 2; text-align: start; text-indent: 0px; text-transform: none; widows: 2; word-spacing: 0px; -webkit-text-stroke-width: 0px; white-space: normal; text-decoration-thickness: initial; text-decoration-style: initial; text-decoration-color: initial; float: none; display: inline !important;&quot;&gt;&lt;font&gt;europe-west2-a&lt;/font&gt;&lt;/span&gt;" style="rounded=1;whiteSpace=wrap;html=1;fillColor=none;verticalAlign=top;arcSize=7;fontStyle=1" parent="1" vertex="1">
                    <mxGeometry x="80" y="120" width="240" height="200" as="geometry"/>
                </mxCell>
                <mxCell id="3" value="&lt;span style=&quot;color: rgb(32, 33, 36); font-style: normal; font-variant-ligatures: normal; font-variant-caps: normal; letter-spacing: normal; orphans: 2; text-align: start; text-indent: 0px; text-transform: none; widows: 2; word-spacing: 0px; -webkit-text-stroke-width: 0px; white-space: normal; text-decoration-thickness: initial; text-decoration-style: initial; text-decoration-color: initial; float: none; display: inline !important;&quot;&gt;&lt;font&gt;europe-west2-b&lt;/font&gt;&lt;/span&gt;" style="rounded=1;whiteSpace=wrap;html=1;fillColor=none;verticalAlign=top;arcSize=7;fontStyle=1" parent="1" vertex="1">
                    <mxGeometry x="340" y="120" width="240" height="200" as="geometry"/>
                </mxCell>
                <mxCell id="4" value="&lt;span style=&quot;color: rgb(32, 33, 36); font-style: normal; font-variant-ligatures: normal; font-variant-caps: normal; letter-spacing: normal; orphans: 2; text-align: start; text-indent: 0px; text-transform: none; widows: 2; word-spacing: 0px; -webkit-text-stroke-width: 0px; white-space: normal; text-decoration-thickness: initial; text-decoration-style: initial; text-decoration-color: initial; float: none; display: inline !important;&quot;&gt;&lt;font&gt;europe-west2-c&lt;/font&gt;&lt;/span&gt;" style="rounded=1;whiteSpace=wrap;html=1;fillColor=none;verticalAlign=top;arcSize=7;fontStyle=1" parent="1" vertex="1">
                    <mxGeometry x="600" y="120" width="240" height="200" as="geometry"/>
                </mxCell>
                <mxCell id="5" value="GKE" style="rounded=1;whiteSpace=wrap;html=1;arcSize=3;fillColor=none;verticalAlign=top;fontStyle=1" parent="1" vertex="1">
                    <mxGeometry x="100" y="160" width="720" height="140" as="geometry"/>
                </mxCell>
                <mxCell id="9" value="" style="group" parent="1" vertex="1" connectable="0">
                    <mxGeometry x="430" y="200" width="60" height="60" as="geometry"/>
                </mxCell>
                <mxCell id="10" value="Node" style="shape=cylinder3;whiteSpace=wrap;html=1;boundedLbl=1;backgroundOutline=1;size=10;verticalAlign=bottom;align=right;fillColor=none;" parent="9" vertex="1">
                    <mxGeometry width="60" height="60" as="geometry"/>
                </mxCell>
                <mxCell id="11" value="" style="shape=image;verticalLabelPosition=bottom;labelBackgroundColor=default;verticalAlign=top;aspect=fixed;imageAspect=0;image=https://user-images.githubusercontent.com/25250668/187299780-12d3d49c-6fba-431d-98c8-f6deaa598bc7.png;fillColor=none;" parent="9" vertex="1">
                    <mxGeometry x="3" y="23.059999999999945" width="20" height="24.94" as="geometry"/>
                </mxCell>
                <mxCell id="12" value="" style="group" parent="1" vertex="1" connectable="0">
                    <mxGeometry x="690" y="200" width="60" height="60" as="geometry"/>
                </mxCell>
                <mxCell id="13" value="Node" style="shape=cylinder3;whiteSpace=wrap;html=1;boundedLbl=1;backgroundOutline=1;size=10;verticalAlign=bottom;align=right;fillColor=none;" parent="12" vertex="1">
                    <mxGeometry width="60" height="60" as="geometry"/>
                </mxCell>
                <mxCell id="14" value="" style="shape=image;verticalLabelPosition=bottom;labelBackgroundColor=default;verticalAlign=top;aspect=fixed;imageAspect=0;image=https://user-images.githubusercontent.com/25250668/187299780-12d3d49c-6fba-431d-98c8-f6deaa598bc7.png;fillColor=none;" parent="12" vertex="1">
                    <mxGeometry x="3" y="23.059999999999945" width="20" height="24.94" as="geometry"/>
                </mxCell>
                <mxCell id="6" value="Node" style="shape=cylinder3;whiteSpace=wrap;html=1;boundedLbl=1;backgroundOutline=1;size=10;verticalAlign=bottom;align=right;fillColor=none;strokeColor=#000000;strokeWidth=1;" parent="1" vertex="1">
                    <mxGeometry x="170" y="200" width="60" height="60" as="geometry"/>
                </mxCell>
                <mxCell id="7" value="" style="shape=image;verticalLabelPosition=bottom;labelBackgroundColor=default;verticalAlign=top;aspect=fixed;imageAspect=0;image=https://user-images.githubusercontent.com/25250668/187299780-12d3d49c-6fba-431d-98c8-f6deaa598bc7.png;fillColor=none;" parent="1" vertex="1">
                    <mxGeometry x="173" y="223.05999999999995" width="20" height="24.94" as="geometry"/>
                </mxCell>
            </root>
        </mxGraphModel>
    </diagram>
</mxfile>